<svg xmlns="http://www.w3.org/2000/svg" viewBox="0 0 300 76.43"><defs><style>.cls-1{fill:#58595b;}</style></defs><g id="Layer_2" data-name="Layer 2"><g id="Layer_1-2" data-name="Layer 1"><path class="cls-1" d="M43.19,19.7V9.22l.78.45,17.1,9.88.26.15v21l-.78-.45-8.29-4.79L46,39v7.23L54.29,51l.78.45-.78.45-17.1,9.88-.26.15-.26-.15L19.56,51.94l-.78-.45.78-.45,8.29-4.79V39l-6.26-3.61L13.3,40.2l-.78.45V19.7l.26-.15,17.1-9.88.78-.45V19.7l6.27,3.61ZM52.26,0,37.19,8.7l-.26.15-.26-.15L21.59,0,0,12.47V37.4l15.07,8.7.26.15V64l21.6,12.47L58.52,64V46.25l.26-.15,15.07-8.7V12.47Z"/><polygon class="cls-1" points="30.66 55.11 36.93 58.72 43.19 55.11 43.19 37.7 43.19 37.4 43.45 37.25 58.52 28.55 58.52 21.32 52.26 17.7 37.19 26.41 36.93 26.56 36.67 26.41 21.59 17.7 15.33 21.32 15.33 28.55 30.41 37.25 30.66 37.4 30.66 37.7 30.66 55.11"/><path class="cls-1" d="M109.52,43.84v1.34c0,2,0,5.32.09,8.76l4.88.53v2H100.05v-2l4.88-.53c.09-3.4.09-6.75.09-8.76V44L96.55,26.81l-3.78-.43v-2h13.5v2l-4.55.53,6.65,14.49L115.21,27l-4.3-.58v-2h11v2l-4.21.62Z"/><path class="cls-1" d="M124.73,45.14c0,6.41,2.3,9.85,6.42,9.85s6.46-3.44,6.46-9.85-2.3-10-6.46-10-6.42,3.54-6.42,10m17.42,0c0,7.94-5.41,12.06-11,12.06s-11-4.12-11-12.06,5.45-12.15,11-12.15,11,4.25,11,12.15"/><path class="cls-1" d="M170.09,54.71v1.72l-6.65.48L163,52.65c-2.59,3.16-5.6,4.5-8.47,4.5-3.88,0-6.27-2.3-6.22-8.62l.14-12-3.4-.71V34.08l7-.67.47.48-.23,6.7V48.1c0,4.17,1.24,5.6,3.82,5.6a9.93,9.93,0,0,0,6.7-3.06L163,36.52l-3.4-.71V34.08l6.94-.67.47.48-.14,6.7V54Z"/><path class="cls-1" d="M181.29,39.11c1.63-3.88,4.31-6.17,6.89-6.17a3,3,0,0,1,3.25,2.34,2.62,2.62,0,0,1-2.87,2.63,3.74,3.74,0,0,1-2.72-1.19l-.39-.39a11.59,11.59,0,0,0-4.11,6.32v3.73c0,2.11,0,5.22.09,7.61l3.93.72v1.72H173.73V54.71l3.45-.63c0-2.39.09-5.55.09-7.7V43.94c0-2.63-.05-4.07-.14-6l-3.78-.43V35.85l6.7-2.91.71.48Z"/><path class="cls-1" d="M206.6,54.9c6.08,0,9.43-2.59,9.43-7.18s-3.11-7.32-10.43-7.32H202c0,5.65,0,10.14.1,14.5Zm-4.49-29.19C202,30,202,34.32,202,39h3.16c6.22,0,9.38-2.58,9.38-7.08,0-4-2.44-6.17-8.57-6.17Zm4.78-1.53c6.79,0,10.24,3.11,10.24,7.66,0,3.54-2.35,6.69-7.61,7.7,6.51.72,9.24,4.07,9.24,8.23,0,4.69-3.59,8.66-11.73,8.66H194.5V55.09l4.88-.38c.05-4.36.05-8.71.05-13.11V39c0-4.4,0-8.75-.05-13.11l-4.88-.38V24.18Z"/><path class="cls-1" d="M237.46,43.65a54,54,0,0,0-6,1.82c-4.07,1.53-5.36,3.4-5.36,5.5a4.31,4.31,0,0,0,1,2.92,4.63,4.63,0,0,0,3.4,1.25c2.24,0,4-1.1,6.93-3.93Zm7.13,11.53A3.75,3.75,0,0,1,241.34,57c-2.54,0-3.64-1.54-3.83-4.22-2.82,3-4.78,4.41-7.84,4.41-3.45,0-6.08-2.06-6.08-5.79,0-3.16,2-5.36,7.41-7.18,2-.67,4.36-1.29,6.46-1.77V40.93c0-5.08-1.72-6.32-5.26-6.32a8.58,8.58,0,0,0-4,.91l-.77,3.21a1.8,1.8,0,0,1-1.77,1.43,1.49,1.49,0,0,1-1.53-1.39c1-3.54,4.17-5.59,8.52-5.59,4.74,0,7.13,2.1,7.13,7.41V51.17c0,3.06.72,4.11,2,4.11a2.84,2.84,0,0,0,1.82-.67l.28-.24Z"/><path class="cls-1" d="M272.54,55.18v1.25H262.3V55.18l4-.47c0-2.44.09-5.94.09-8.33V41.69c0-4.73-1.63-6.36-4.45-6.36-2.15,0-4.88.91-8.23,4.35v6.7c0,2.35.05,5.89.1,8.33l3.68.47v1.25H247.27V55.18l4-.47c.05-2.44.1-6,.1-8.33V44.13c0-3.06,0-5.55-.15-7.75L247,36.19V35l5.84-1.54.58.39.23,4.3c3-3.39,6.27-4.92,9.19-4.92,3.78,0,5.89,2.24,5.89,8.37v4.83c0,2.39,0,5.89.09,8.33Z"/><path class="cls-1" d="M300,55.18v1.25h-5.45l-8-12.78-4,4c0,2.3.05,4.93.1,7.09l3.87.47v1.25H276V55.18l4.11-.47c.05-2.54.1-5.84.1-8.33V23.94L276,23.75V22.51l6-1.25.67.38-.15,6.8V45.66l9.81-9.9-4.16-.38V34H298.9v1.34l-4.4.33-6.22,6.22,8.08,12.82Z"/></g></g></svg>