<?xml version="1.0" encoding="utf-8"?>
<!-- Generator: Adobe Illustrator 24.0.0, SVG Export Plug-In . SVG Version: 6.00 Build 0)  -->
<svg version="1.1" id="Layer_1" xmlns="http://www.w3.org/2000/svg" xmlns:xlink="http://www.w3.org/1999/xlink" x="0px" y="0px"
	 viewBox="0 0 64 64" style="enable-background:new 0 0 64 64;" xml:space="preserve">
<style type="text/css">
	.st0{fill:#4D4D4D;}
</style>
<g>
	<path class="st0" d="M11,26H8c-0.55,0-1-0.45-1-1s0.45-1,1-1h3c0.55,0,1,0.45,1,1S11.55,26,11,26z"/>
	<path class="st0" d="M25,12c-0.55,0-1-0.45-1-1V8c0-0.55,0.45-1,1-1s1,0.45,1,1v3C26,11.55,25.55,12,25,12z"/>
	<path class="st0" d="M10.28,34.5c-0.35,0-0.68-0.18-0.87-0.5c-0.28-0.48-0.11-1.09,0.37-1.37l2.6-1.5
		c0.48-0.28,1.09-0.11,1.37,0.37c0.28,0.48,0.11,1.09-0.37,1.37l-2.6,1.5C10.62,34.46,10.45,34.5,10.28,34.5z"/>
	<path class="st0" d="M37.13,19c-0.35,0-0.68-0.18-0.87-0.5c-0.28-0.48-0.11-1.09,0.37-1.37l2.6-1.5c0.48-0.28,1.09-0.11,1.37,0.37
		c0.28,0.48,0.11,1.09-0.37,1.37l-2.6,1.5C37.47,18.96,37.29,19,37.13,19z"/>
	<path class="st0" d="M18,13.88c-0.35,0-0.68-0.18-0.87-0.5l-1.5-2.6C15.36,10.3,15.52,9.69,16,9.41c0.48-0.28,1.09-0.11,1.37,0.37
		l1.5,2.6c0.28,0.48,0.11,1.09-0.37,1.37C18.34,13.83,18.17,13.88,18,13.88z"/>
	<path class="st0" d="M32,13.88c-0.17,0-0.34-0.04-0.5-0.13c-0.48-0.28-0.64-0.89-0.37-1.37l1.5-2.6C32.91,9.3,33.52,9.14,34,9.41
		s0.64,0.89,0.37,1.37l-1.5,2.6C32.68,13.7,32.34,13.88,32,13.88z"/>
	<path class="st0" d="M12.88,19c-0.17,0-0.34-0.04-0.5-0.13l-2.6-1.5C9.3,17.09,9.13,16.48,9.41,16c0.28-0.48,0.89-0.64,1.37-0.37
		l2.6,1.5c0.48,0.28,0.64,0.89,0.37,1.37C13.56,18.82,13.22,19,12.88,19z"/>
	<path class="st0" d="M17.91,33.39c0.51-0.47,1.06-0.88,1.67-1.23C17.41,30.52,16,27.92,16,25c0-4.96,4.04-9,9-9
		c4.19,0,7.71,2.89,8.71,6.77c0.53-0.47,1.11-0.89,1.72-1.25C33.97,17.16,29.85,14,25,14c-6.07,0-11,4.93-11,11
		C14,28.36,15.52,31.37,17.91,33.39z"/>
	<path class="st0" d="M49,47H24c-3.86,0-7-3.14-7-7s3.14-7,7-7c0.03,0,0.06,0,0.08,0c0.48-2.83,2.95-5,5.92-5
		c0.82,0,1.62,0.17,2.36,0.49C33.45,24.71,36.94,22,41,22c4.96,0,9,4.04,9,9c0,0.02,0,0.04,0,0.06c3.94,0.49,7,3.86,7,7.94
		C57,43.41,53.41,47,49,47z M24,35c-2.76,0-5,2.24-5,5s2.24,5,5,5h25c3.31,0,6-2.69,6-6c0-3.3-2.68-5.99-5.98-6
		c-0.03,0-0.07,0-0.09,0c-0.29,0-0.56-0.12-0.75-0.34c-0.19-0.22-0.28-0.5-0.24-0.79C47.97,31.59,48,31.3,48,31c0-3.86-3.14-7-7-7
		c-3.55,0-6.54,2.66-6.95,6.19c-0.04,0.36-0.27,0.67-0.61,0.81c-0.33,0.14-0.72,0.09-1-0.13C31.72,30.3,30.88,30,30,30
		c-2.19,0-3.98,1.77-4,3.96c0,0.05,0.01,0.1,0.01,0.13c0,0.29-0.13,0.58-0.36,0.76c-0.23,0.19-0.53,0.27-0.81,0.22
		C24.54,35.03,24.26,35,24,35z"/>
	<path class="st0" d="M30,57c-0.55,0-1-0.45-1-1v-7c0-0.55,0.45-1,1-1s1,0.45,1,1v7C31,56.55,30.55,57,30,57z"/>
	<path class="st0" d="M33,55.5c-0.19,0-0.38-0.05-0.55-0.17l-6-4c-0.46-0.31-0.58-0.93-0.28-1.39c0.31-0.46,0.92-0.58,1.39-0.28l6,4
		c0.46,0.31,0.58,0.93,0.28,1.39C33.64,55.34,33.32,55.5,33,55.5z"/>
	<path class="st0" d="M27,55.5c-0.32,0-0.64-0.16-0.83-0.45c-0.31-0.46-0.18-1.08,0.28-1.39l6-4c0.46-0.31,1.08-0.18,1.39,0.28
		s0.18,1.08-0.28,1.39l-6,4C27.38,55.45,27.19,55.5,27,55.5z"/>
	<path class="st0" d="M42,57c-0.55,0-1-0.45-1-1v-7c0-0.55,0.45-1,1-1s1,0.45,1,1v7C43,56.55,42.55,57,42,57z"/>
	<path class="st0" d="M45,55.5c-0.19,0-0.38-0.05-0.55-0.17l-6-4c-0.46-0.31-0.58-0.93-0.28-1.39c0.31-0.46,0.92-0.58,1.39-0.28l6,4
		c0.46,0.31,0.58,0.93,0.28,1.39C45.64,55.34,45.32,55.5,45,55.5z"/>
	<path class="st0" d="M39,55.5c-0.32,0-0.64-0.16-0.83-0.45c-0.31-0.46-0.18-1.08,0.28-1.39l6-4c0.46-0.31,1.08-0.18,1.39,0.28
		s0.18,1.08-0.28,1.39l-6,4C39.38,55.45,39.19,55.5,39,55.5z"/>
</g>
</svg>
