<?xml version="1.0" encoding="utf-8"?>
<!-- Generator: Adobe Illustrator 24.0.0, SVG Export Plug-In . SVG Version: 6.00 Build 0)  -->
<svg version="1.1" id="Layer_1" xmlns="http://www.w3.org/2000/svg" xmlns:xlink="http://www.w3.org/1999/xlink" x="0px" y="0px"
	 viewBox="0 0 64 64" style="enable-background:new 0 0 64 64;" xml:space="preserve">
<style type="text/css">
	.st0{fill:#4D4D4D;}
</style>
<g>
	<path class="st0" d="M36,57c-0.15,0-0.3-0.03-0.45-0.11c-0.49-0.25-0.69-0.85-0.45-1.34l3-6c0.25-0.49,0.85-0.69,1.34-0.45
		c0.49,0.25,0.69,0.85,0.45,1.34l-3,6C36.72,56.8,36.37,57,36,57z"/>
	<path class="st0" d="M44,49c-0.15,0-0.3-0.03-0.45-0.11c-0.49-0.25-0.69-0.85-0.45-1.34l3-6c0.25-0.49,0.85-0.69,1.34-0.45
		c0.49,0.25,0.69,0.85,0.45,1.34l-3,6C44.72,48.8,44.37,49,44,49z"/>
	<path class="st0" d="M27,57c-0.15,0-0.3-0.03-0.45-0.11c-0.49-0.25-0.69-0.85-0.45-1.34l3-6c0.25-0.49,0.85-0.69,1.34-0.45
		c0.49,0.25,0.69,0.85,0.45,1.34l-3,6C27.72,56.8,27.37,57,27,57z"/>
	<path class="st0" d="M35,49c-0.15,0-0.3-0.03-0.45-0.11c-0.49-0.25-0.69-0.85-0.45-1.34l3-6c0.25-0.49,0.85-0.69,1.34-0.45
		c0.49,0.25,0.69,0.85,0.45,1.34l-3,6C35.72,48.8,35.37,49,35,49z"/>
	<path class="st0" d="M46.95,19c0.03-0.33,0.05-0.67,0.05-1c0-6.07-4.93-11-11-11c-5.31,0-9.75,3.74-10.77,8.8
		C24.24,15.28,23.13,15,22,15c-3.86,0-7,3.14-7,7c0,0.34,0.02,0.67,0.07,1c-0.02,0-0.05,0-0.07,0c-4.41,0-8,3.59-8,8
		c0,4.39,3.55,7.96,7.94,8l1.28-2H15c-3.31,0-6-2.69-6-6s2.69-6,6-6c0.4,0,0.81,0.04,1.2,0.12c0.36,0.07,0.73-0.06,0.96-0.33
		c0.24-0.28,0.3-0.66,0.17-1C17.11,23.2,17,22.6,17,22c0-2.76,2.24-5,5-5c1.24,0,2.43,0.46,3.35,1.3c0.29,0.26,0.7,0.33,1.06,0.18
		c0.36-0.15,0.6-0.49,0.61-0.88C27.23,12.78,31.18,9,36,9c4.96,0,9,4.04,9,9c0,0.62-0.07,1.26-0.2,1.88
		c-0.07,0.32,0.02,0.65,0.25,0.89c0.22,0.24,0.54,0.36,0.87,0.31C46.33,21.03,46.68,21,47,21c4.41,0,8,3.59,8,8s-3.59,8-8,8H31.84
		l-1.6,2H33h14c5.51,0,10-4.49,10-10C57,23.47,52.47,19,46.95,19z"/>
	<path class="st0" d="M16,57c-0.23,0-0.46-0.08-0.65-0.24c-0.37-0.32-0.46-0.85-0.21-1.27L20.23,47H14c-0.37,0-0.7-0.2-0.88-0.52
		c-0.17-0.32-0.16-0.71,0.04-1.02l9-14C22.34,31.17,22.66,31,23,31h9c0.38,0,0.73,0.22,0.9,0.57c0.17,0.35,0.12,0.76-0.12,1.06
		L26.08,41H33c0.42,0,0.8,0.26,0.94,0.66s0.02,0.84-0.31,1.11l-17,14C16.45,56.92,16.23,57,16,57z M15.83,45H22
		c0.36,0,0.69,0.19,0.87,0.51c0.18,0.31,0.17,0.7-0.01,1.01l-3.02,5.03L30.21,43H24c-0.38,0-0.73-0.22-0.9-0.57
		c-0.17-0.35-0.12-0.76,0.12-1.06l6.7-8.38h-6.37L15.83,45z"/>
</g>
</svg>
