<?xml version="1.0" encoding="utf-8"?>
<!-- Generator: Adobe Illustrator 24.0.0, SVG Export Plug-In . SVG Version: 6.00 Build 0)  -->
<svg version="1.1" id="Layer_1" xmlns="http://www.w3.org/2000/svg" xmlns:xlink="http://www.w3.org/1999/xlink" x="0px" y="0px"
	 viewBox="0 0 64 64" style="enable-background:new 0 0 64 64;" xml:space="preserve">
<style type="text/css">
	.st0{fill:#4D4D4D;}
</style>
<g>
	<path class="st0" d="M47,39.5H15c-4.41,0-8-3.59-8-8s3.59-8,8-8c0.02,0,0.05,0,0.07,0c-0.05-0.33-0.07-0.67-0.07-1
		c0-3.86,3.14-7,7-7c1.13,0,2.24,0.28,3.23,0.8c1.02-5.05,5.46-8.8,10.77-8.8c6.07,0,11,4.93,11,11c0,0.33-0.02,0.67-0.05,1
		c0.02,0,0.03,0,0.05,0c5.51,0,10,4.49,10,10C57,35.01,52.51,39.5,47,39.5z M15,25.5c-3.31,0-6,2.69-6,6s2.69,6,6,6h32
		c4.41,0,8-3.59,8-8s-3.59-8-8-8c-0.32,0-0.67,0.03-1.09,0.08c-0.33,0.05-0.65-0.07-0.87-0.31c-0.22-0.24-0.31-0.57-0.25-0.89
		c0.13-0.63,0.2-1.26,0.2-1.88c0-4.96-4.04-9-9-9c-4.82,0-8.77,3.78-8.98,8.6c-0.02,0.39-0.26,0.73-0.61,0.88
		c-0.36,0.15-0.77,0.08-1.06-0.18c-0.92-0.84-2.11-1.3-3.35-1.3c-2.76,0-5,2.24-5,5c0,0.6,0.11,1.2,0.33,1.78
		c0.13,0.34,0.07,0.73-0.17,1c-0.24,0.28-0.6,0.41-0.96,0.33C15.81,25.54,15.4,25.5,15,25.5z"/>
	<path class="st0" d="M37,50.5c-0.15,0-0.3-0.03-0.45-0.11c-0.49-0.25-0.69-0.85-0.45-1.34l3-6c0.25-0.49,0.85-0.69,1.34-0.45
		c0.49,0.25,0.69,0.85,0.45,1.34l-3,6C37.72,50.3,37.37,50.5,37,50.5z"/>
	<path class="st0" d="M25,56.5c-0.15,0-0.3-0.03-0.45-0.11c-0.49-0.25-0.69-0.85-0.45-1.34l6-12c0.25-0.49,0.85-0.69,1.34-0.45
		c0.49,0.25,0.69,0.85,0.45,1.34l-6,12C25.72,56.3,25.37,56.5,25,56.5z"/>
	<path class="st0" d="M19,50.5c-0.15,0-0.3-0.03-0.45-0.11c-0.49-0.25-0.69-0.85-0.45-1.34l3-6c0.25-0.49,0.85-0.69,1.34-0.45
		c0.49,0.25,0.69,0.85,0.45,1.34l-3,6C19.72,50.3,19.37,50.5,19,50.5z"/>
</g>
</svg>
