<?xml version="1.0" encoding="utf-8"?>
<!-- Generator: Adobe Illustrator 24.0.0, SVG Export Plug-In . SVG Version: 6.00 Build 0)  -->
<svg version="1.1" id="Layer_1" xmlns="http://www.w3.org/2000/svg" xmlns:xlink="http://www.w3.org/1999/xlink" x="0px" y="0px"
	 viewBox="0 0 64 64" style="enable-background:new 0 0 64 64;" xml:space="preserve">
<style type="text/css">
	.st0{fill:#4D4D4D;}
</style>
<g>
	<path class="st0" d="M53,32h-5c-0.55,0-1-0.45-1-1s0.45-1,1-1h5c0.55,0,1,0.45,1,1S53.55,32,53,32z"/>
	<path class="st0" d="M14,32H9c-0.55,0-1-0.45-1-1s0.45-1,1-1h5c0.55,0,1,0.45,1,1S14.55,32,14,32z"/>
	<path class="st0" d="M31,15c-0.55,0-1-0.45-1-1V9c0-0.55,0.45-1,1-1s1,0.45,1,1v5C32,14.55,31.55,15,31,15z"/>
	<path class="st0" d="M45.72,23.5c-0.35,0-0.68-0.18-0.87-0.5c-0.28-0.48-0.11-1.09,0.37-1.37l4.33-2.5
		c0.48-0.28,1.09-0.11,1.37,0.37c0.28,0.48,0.11,1.09-0.37,1.37l-4.33,2.5C46.07,23.46,45.89,23.5,45.72,23.5z"/>
	<path class="st0" d="M11.95,43c-0.35,0-0.68-0.18-0.87-0.5c-0.28-0.48-0.11-1.09,0.37-1.37l4.33-2.5c0.48-0.28,1.09-0.11,1.37,0.37
		c0.28,0.48,0.11,1.09-0.37,1.37l-4.33,2.5C12.29,42.96,12.12,43,11.95,43z"/>
	<path class="st0" d="M22.5,17.28c-0.35,0-0.68-0.18-0.87-0.5l-2.5-4.33c-0.28-0.48-0.11-1.09,0.37-1.37
		c0.48-0.28,1.09-0.11,1.37,0.37l2.5,4.33c0.28,0.48,0.11,1.09-0.37,1.37C22.84,17.23,22.67,17.28,22.5,17.28z"/>
	<path class="st0" d="M39.5,17.28c-0.17,0-0.34-0.04-0.5-0.13c-0.48-0.28-0.64-0.89-0.37-1.37l2.5-4.33
		c0.28-0.48,0.89-0.64,1.37-0.37c0.48,0.28,0.64,0.89,0.37,1.37l-2.5,4.33C40.18,17.1,39.84,17.28,39.5,17.28z"/>
	<path class="st0" d="M20,51.05c-0.17,0-0.34-0.04-0.5-0.13c-0.48-0.28-0.64-0.89-0.37-1.37l2.5-4.33c0.28-0.48,0.89-0.64,1.37-0.37
		s0.64,0.89,0.37,1.37l-2.5,4.33C20.68,50.87,20.34,51.05,20,51.05z"/>
	<path class="st0" d="M16.28,23.5c-0.17,0-0.34-0.04-0.5-0.13l-4.33-2.5c-0.48-0.28-0.64-0.89-0.37-1.37s0.89-0.64,1.37-0.37
		l4.33,2.5c0.48,0.28,0.64,0.89,0.37,1.37C16.96,23.32,16.62,23.5,16.28,23.5z"/>
	<path class="st0" d="M30.47,43.07c0.15-0.38,0.35-0.73,0.57-1.07c-0.01,0-0.03,0-0.04,0c-6.07,0-11-4.93-11-11s4.93-11,11-11
		s11,4.93,11,11c0,1.61-0.36,3.14-0.99,4.53c0.74-0.26,1.53-0.43,2.33-0.48C43.77,33.77,44,32.41,44,31c0-7.17-5.83-13-13-13
		s-13,5.83-13,13c0,6.25,4.43,11.48,10.31,12.72C28.99,43.4,29.71,43.18,30.47,43.07z"/>
	<path class="st0" d="M50,56H31.5c-3.03,0-5.5-2.47-5.5-5.5c0-3.21,2.82-5.79,6.02-5.47C32.26,42.77,34.18,41,36.5,41
		c0.38,0,0.75,0.05,1.11,0.15C38.72,38.66,41.21,37,44,37c3.86,0,7,3.14,7,7c0,0.03,0,0.06,0,0.08c2.83,0.48,5,2.95,5,5.92
		C56,53.31,53.31,56,50,56z M31.5,47c-1.93,0-3.5,1.57-3.5,3.5s1.57,3.5,3.5,3.5H50c2.21,0,4-1.79,4-4c0-2.19-1.77-3.98-3.96-4
		c-0.05,0-0.1,0.01-0.13,0.01c-0.29,0-0.58-0.13-0.76-0.36c-0.19-0.23-0.27-0.52-0.22-0.81C48.97,44.54,49,44.26,49,44
		c0-2.76-2.24-5-5-5c-2.26,0-4.25,1.53-4.83,3.72c-0.08,0.3-0.29,0.54-0.58,0.67c-0.28,0.12-0.61,0.1-0.88-0.05
		C37.32,43.11,36.91,43,36.5,43c-1.38,0-2.5,1.12-2.5,2.5c0,0.17,0.02,0.36,0.08,0.58c0.08,0.36-0.04,0.74-0.32,0.98
		s-0.67,0.31-1.02,0.18C32.33,47.08,31.91,47,31.5,47z"/>
</g>
</svg>
