<?xml version="1.0" encoding="utf-8"?>
<!-- Generator: Adobe Illustrator 24.0.0, SVG Export Plug-In . SVG Version: 6.00 Build 0)  -->
<svg version="1.1" id="Layer_1" xmlns="http://www.w3.org/2000/svg" xmlns:xlink="http://www.w3.org/1999/xlink" x="0px" y="0px"
	 viewBox="0 0 64 64" style="enable-background:new 0 0 64 64;" xml:space="preserve">
<style type="text/css">
	.st0{fill:#4D4D4D;}
</style>
<g>
	<path class="st0" d="M11.5,26h-3c-0.55,0-1-0.45-1-1s0.45-1,1-1h3c0.55,0,1,0.45,1,1S12.05,26,11.5,26z"/>
	<path class="st0" d="M25.5,12c-0.55,0-1-0.45-1-1V8c0-0.55,0.45-1,1-1s1,0.45,1,1v3C26.5,11.55,26.05,12,25.5,12z"/>
	<path class="st0" d="M10.78,34.5c-0.35,0-0.68-0.18-0.87-0.5c-0.28-0.48-0.11-1.09,0.37-1.37l2.6-1.5
		c0.48-0.28,1.09-0.11,1.37,0.37c0.28,0.48,0.11,1.09-0.37,1.37l-2.6,1.5C11.12,34.46,10.95,34.5,10.78,34.5z"/>
	<path class="st0" d="M18.5,13.88c-0.35,0-0.68-0.18-0.87-0.5l-1.5-2.6c-0.28-0.48-0.11-1.09,0.37-1.37
		c0.48-0.28,1.09-0.11,1.37,0.37l1.5,2.6c0.28,0.48,0.11,1.09-0.37,1.37C18.84,13.83,18.67,13.88,18.5,13.88z"/>
	<path class="st0" d="M32.5,13.88c-0.17,0-0.34-0.04-0.5-0.13c-0.48-0.28-0.64-0.89-0.37-1.37l1.5-2.6
		c0.28-0.48,0.89-0.64,1.37-0.37s0.64,0.89,0.37,1.37l-1.5,2.6C33.18,13.7,32.84,13.88,32.5,13.88z"/>
	<path class="st0" d="M13.38,19c-0.17,0-0.34-0.04-0.5-0.13l-2.6-1.5C9.8,17.09,9.63,16.48,9.91,16c0.28-0.48,0.89-0.64,1.37-0.37
		l2.6,1.5c0.48,0.28,0.64,0.89,0.37,1.37C14.06,18.82,13.72,19,13.38,19z"/>
	<path class="st0" d="M19.58,34.26c0.44-0.53,0.95-1.01,1.5-1.43c-2.73-1.55-4.58-4.47-4.58-7.83c0-4.96,4.04-9,9-9s9,4.04,9,9
		c0,0.47-0.05,0.92-0.12,1.37c0.66,0.16,1.3,0.35,1.93,0.58c0.11-0.63,0.18-1.28,0.18-1.95c0-6.07-4.93-11-11-11s-11,4.93-11,11
		C14.5,28.89,16.53,32.3,19.58,34.26z"/>
	<path class="st0" d="M32.5,47h-6c-3.86,0-7-3.14-7-7s3.14-7,7-7c0.03,0,0.06,0,0.08,0c0.48-2.83,2.95-5,5.92-5
		c1.33,0,2.6,0.44,3.67,1.28c0.44,0.34,0.51,0.97,0.17,1.4c-0.34,0.43-0.97,0.51-1.4,0.17C34.22,30.3,33.38,30,32.5,30
		c-2.19,0-3.98,1.77-4,3.96c0,0.05,0.01,0.1,0.01,0.13c0,0.29-0.13,0.58-0.36,0.76c-0.23,0.19-0.52,0.27-0.81,0.22
		C27.04,35.03,26.76,35,26.5,35c-2.76,0-5,2.24-5,5s2.24,5,5,5h6c0.55,0,1,0.45,1,1S33.05,47,32.5,47z"/>
	<g>
		<path class="st0" d="M55.5,14h-4c-0.55,0-1-0.45-1-1s0.45-1,1-1h4c0.55,0,1,0.45,1,1S56.05,14,55.5,14z"/>
		<path class="st0" d="M55.5,20h-4c-0.55,0-1-0.45-1-1s0.45-1,1-1h4c0.55,0,1,0.45,1,1S56.05,20,55.5,20z"/>
		<path class="st0" d="M55.5,26h-4c-0.55,0-1-0.45-1-1s0.45-1,1-1h4c0.55,0,1,0.45,1,1S56.05,26,55.5,26z"/>
		<path class="st0" d="M55.5,32h-4c-0.55,0-1-0.45-1-1s0.45-1,1-1h4c0.55,0,1,0.45,1,1S56.05,32,55.5,32z"/>
		<path class="st0" d="M55.5,38h-4c-0.55,0-1-0.45-1-1s0.45-1,1-1h4c0.55,0,1,0.45,1,1S56.05,38,55.5,38z"/>
		<path class="st0" d="M43.5,57c-4.96,0-9-4.04-9-9c0-2.98,1.52-5.79,4-7.45V12c0-2.76,2.24-5,5-5s5,2.24,5,5v28.55
			c2.48,1.67,4,4.47,4,7.45C52.5,52.96,48.46,57,43.5,57z M43.5,9c-1.65,0-3,1.35-3,3v29.1c0,0.36-0.19,0.69-0.5,0.86
			c-2.19,1.27-3.5,3.53-3.5,6.03c0,3.86,3.14,7,7,7s7-3.14,7-7c0-2.5-1.31-4.76-3.5-6.03c-0.31-0.18-0.5-0.51-0.5-0.86V12
			C46.5,10.35,45.15,9,43.5,9z"/>
		<path class="st0" d="M43.5,51c-1.65,0-3-1.35-3-3s1.35-3,3-3s3,1.35,3,3S45.15,51,43.5,51z M43.5,47c-0.55,0-1,0.45-1,1
			s0.45,1,1,1s1-0.45,1-1S44.05,47,43.5,47z"/>
		<path class="st0" d="M43.5,47c-0.55,0-1-0.45-1-1V25c0-0.55,0.45-1,1-1s1,0.45,1,1v21C44.5,46.55,44.05,47,43.5,47z"/>
	</g>
</g>
</svg>
