<?xml version="1.0" encoding="utf-8"?>
<!-- Generator: Adobe Illustrator 24.0.0, SVG Export Plug-In . SVG Version: 6.00 Build 0)  -->
<svg version="1.1" id="Layer_1" xmlns="http://www.w3.org/2000/svg" xmlns:xlink="http://www.w3.org/1999/xlink" x="0px" y="0px"
	 viewBox="0 0 64 64" style="enable-background:new 0 0 64 64;" xml:space="preserve">
<style type="text/css">
	.st0{fill:#FFFFFF;}
</style>
<g>
	<path class="st0" d="M47,39H15c-4.41,0-8-3.59-8-8s3.59-8,8-8c0.02,0,0.05,0,0.07,0C15.02,22.67,15,22.34,15,22c0-3.86,3.14-7,7-7
		c1.13,0,2.24,0.28,3.23,0.8C26.25,10.74,30.69,7,36,7c6.07,0,11,4.93,11,11c0,0.33-0.02,0.67-0.05,1c0.02,0,0.03,0,0.05,0
		c5.51,0,10,4.49,10,10C57,34.51,52.51,39,47,39z M15,25c-3.31,0-6,2.69-6,6s2.69,6,6,6h32c4.41,0,8-3.59,8-8s-3.59-8-8-8
		c-0.32,0-0.67,0.03-1.09,0.08c-0.33,0.05-0.65-0.07-0.87-0.31c-0.22-0.24-0.31-0.57-0.25-0.89C44.93,19.26,45,18.62,45,18
		c0-4.96-4.04-9-9-9c-4.82,0-8.77,3.78-8.98,8.6c-0.02,0.39-0.26,0.73-0.61,0.88c-0.36,0.15-0.77,0.08-1.06-0.18
		C24.43,17.46,23.24,17,22,17c-2.76,0-5,2.24-5,5c0,0.6,0.11,1.2,0.33,1.78c0.13,0.34,0.07,0.73-0.17,1
		c-0.24,0.28-0.6,0.41-0.96,0.33C15.81,25.04,15.4,25,15,25z"/>
	<path class="st0" d="M21,50c-0.55,0-1-0.45-1-1v-7c0-0.55,0.45-1,1-1s1,0.45,1,1v7C22,49.55,21.55,50,21,50z"/>
	<path class="st0" d="M24,48.5c-0.19,0-0.38-0.05-0.55-0.17l-6-4c-0.46-0.31-0.58-0.93-0.28-1.39c0.31-0.46,0.93-0.58,1.39-0.28l6,4
		c0.46,0.31,0.58,0.93,0.28,1.39C24.64,48.34,24.32,48.5,24,48.5z"/>
	<path class="st0" d="M18,48.5c-0.32,0-0.64-0.16-0.83-0.45c-0.31-0.46-0.18-1.08,0.28-1.39l6-4c0.46-0.31,1.08-0.18,1.39,0.28
		c0.31,0.46,0.18,1.08-0.28,1.39l-6,4C18.38,48.45,18.19,48.5,18,48.5z"/>
	<path class="st0" d="M31,57c-0.55,0-1-0.45-1-1v-7c0-0.55,0.45-1,1-1s1,0.45,1,1v7C32,56.55,31.55,57,31,57z"/>
	<path class="st0" d="M34,55.5c-0.19,0-0.38-0.05-0.55-0.17l-6-4c-0.46-0.31-0.58-0.93-0.28-1.39c0.3-0.46,0.92-0.58,1.39-0.28l6,4
		c0.46,0.31,0.58,0.93,0.28,1.39C34.64,55.34,34.32,55.5,34,55.5z"/>
	<path class="st0" d="M28,55.5c-0.32,0-0.64-0.16-0.83-0.45c-0.31-0.46-0.18-1.08,0.28-1.39l6-4c0.46-0.31,1.08-0.18,1.39,0.28
		s0.18,1.08-0.28,1.39l-6,4C28.38,55.45,28.19,55.5,28,55.5z"/>
	<path class="st0" d="M41,50c-0.55,0-1-0.45-1-1v-7c0-0.55,0.45-1,1-1s1,0.45,1,1v7C42,49.55,41.55,50,41,50z"/>
	<path class="st0" d="M44,48.5c-0.19,0-0.38-0.05-0.55-0.17l-6-4c-0.46-0.31-0.58-0.93-0.28-1.39c0.31-0.46,0.92-0.58,1.39-0.28l6,4
		c0.46,0.31,0.58,0.93,0.28,1.39C44.64,48.34,44.32,48.5,44,48.5z"/>
	<path class="st0" d="M38,48.5c-0.32,0-0.64-0.16-0.83-0.45c-0.31-0.46-0.18-1.08,0.28-1.39l6-4c0.46-0.31,1.08-0.18,1.39,0.28
		c0.31,0.46,0.18,1.08-0.28,1.39l-6,4C38.38,48.45,38.19,48.5,38,48.5z"/>
</g>
</svg>
