<?xml version="1.0" encoding="utf-8"?>
<!-- Generator: Adobe Illustrator 24.0.0, SVG Export Plug-In . SVG Version: 6.00 Build 0)  -->
<svg version="1.1" id="Layer_1" xmlns="http://www.w3.org/2000/svg" xmlns:xlink="http://www.w3.org/1999/xlink" x="0px" y="0px"
	 viewBox="0 0 64 64" style="enable-background:new 0 0 64 64;" xml:space="preserve">
<style type="text/css">
	.st0{fill:#FFFFFF;}
</style>
<g>
	<path class="st0" d="M47,39H15c-4.41,0-8-3.59-8-8s3.59-8,8-8c0.02,0,0.05,0,0.07,0C15.02,22.67,15,22.34,15,22c0-3.86,3.14-7,7-7
		c1.13,0,2.24,0.28,3.23,0.8C26.25,10.74,30.69,7,36,7c6.07,0,11,4.93,11,11c0,0.33-0.02,0.67-0.05,1c0.02,0,0.03,0,0.05,0
		c5.51,0,10,4.49,10,10C57,34.51,52.51,39,47,39z M15,25c-3.31,0-6,2.69-6,6s2.69,6,6,6h32c4.41,0,8-3.59,8-8s-3.59-8-8-8
		c-0.32,0-0.67,0.03-1.09,0.08c-0.33,0.05-0.65-0.07-0.87-0.31c-0.22-0.24-0.31-0.57-0.25-0.89C44.93,19.26,45,18.62,45,18
		c0-4.96-4.04-9-9-9c-4.82,0-8.77,3.78-8.98,8.6c-0.02,0.39-0.26,0.73-0.61,0.88c-0.36,0.15-0.77,0.08-1.06-0.18
		C24.43,17.46,23.24,17,22,17c-2.76,0-5,2.24-5,5c0,0.6,0.11,1.2,0.33,1.78c0.13,0.34,0.07,0.73-0.17,1
		c-0.24,0.28-0.6,0.41-0.96,0.33C15.81,25.04,15.4,25,15,25z"/>
	<path class="st0" d="M34,57c-0.15,0-0.3-0.03-0.45-0.11c-0.49-0.25-0.69-0.85-0.45-1.34l3-6c0.25-0.49,0.85-0.69,1.34-0.45
		c0.49,0.25,0.69,0.85,0.45,1.34l-3,6C34.72,56.8,34.37,57,34,57z"/>
	<path class="st0" d="M42,49c-0.15,0-0.3-0.03-0.45-0.11c-0.49-0.25-0.69-0.85-0.45-1.34l3-6c0.25-0.49,0.85-0.69,1.34-0.45
		c0.49,0.25,0.69,0.85,0.45,1.34l-3,6C42.72,48.8,42.37,49,42,49z"/>
	<path class="st0" d="M25,57c-0.15,0-0.3-0.03-0.45-0.11c-0.49-0.25-0.69-0.85-0.45-1.34l3-6c0.25-0.49,0.85-0.69,1.34-0.45
		c0.49,0.25,0.69,0.85,0.45,1.34l-3,6C25.72,56.8,25.37,57,25,57z"/>
	<path class="st0" d="M33,49c-0.15,0-0.3-0.03-0.45-0.11c-0.49-0.25-0.69-0.85-0.45-1.34l3-6c0.25-0.49,0.85-0.69,1.34-0.45
		c0.49,0.25,0.69,0.85,0.45,1.34l-3,6C33.72,48.8,33.37,49,33,49z"/>
	<path class="st0" d="M16,57c-0.15,0-0.3-0.03-0.45-0.11c-0.49-0.25-0.69-0.85-0.45-1.34l3-6c0.25-0.49,0.85-0.69,1.34-0.45
		c0.49,0.25,0.69,0.85,0.45,1.34l-3,6C16.72,56.8,16.37,57,16,57z"/>
	<path class="st0" d="M24,49c-0.15,0-0.3-0.03-0.45-0.11c-0.49-0.25-0.69-0.85-0.45-1.34l3-6c0.25-0.49,0.85-0.69,1.34-0.45
		c0.49,0.25,0.69,0.85,0.45,1.34l-3,6C24.72,48.8,24.37,49,24,49z"/>
	<path class="st0" d="M15,49c-0.15,0-0.3-0.03-0.45-0.11c-0.49-0.25-0.69-0.85-0.45-1.34l3-6c0.25-0.49,0.85-0.69,1.34-0.45
		c0.49,0.25,0.69,0.85,0.45,1.34l-3,6C15.72,48.8,15.37,49,15,49z"/>
</g>
</svg>
