<?xml version="1.0" encoding="utf-8"?>
<!-- Generator: Adobe Illustrator 24.0.0, SVG Export Plug-In . SVG Version: 6.00 Build 0)  -->
<svg version="1.1" id="Layer_1" xmlns="http://www.w3.org/2000/svg" xmlns:xlink="http://www.w3.org/1999/xlink" x="0px" y="0px"
	 viewBox="0 0 64 64" style="enable-background:new 0 0 64 64;" xml:space="preserve">
<style type="text/css">
	.st0{fill:#FFFFFF;}
</style>
<g>
	<path class="st0" d="M32,47c-8.27,0-15-6.73-15-15c0-8.27,6.73-15,15-15c8.27,0,15,6.73,15,15C47,40.27,40.27,47,32,47z M32,19
		c-7.17,0-13,5.83-13,13c0,7.17,5.83,13,13,13c7.17,0,13-5.83,13-13C45,24.83,39.17,19,32,19z"/>
	<path class="st0" d="M56,33h-5c-0.55,0-1-0.45-1-1s0.45-1,1-1h5c0.55,0,1,0.45,1,1S56.55,33,56,33z"/>
	<path class="st0" d="M13,33H8c-0.55,0-1-0.45-1-1s0.45-1,1-1h5c0.55,0,1,0.45,1,1S13.55,33,13,33z"/>
	<path class="st0" d="M32,14c-0.55,0-1-0.45-1-1V8c0-0.55,0.45-1,1-1s1,0.45,1,1v5C33,13.55,32.55,14,32,14z"/>
	<path class="st0" d="M32,57c-0.55,0-1-0.45-1-1v-5c0-0.55,0.45-1,1-1s1,0.45,1,1v5C33,56.55,32.55,57,32,57z"/>
	<path class="st0" d="M48.46,23.5c-0.35,0-0.68-0.18-0.87-0.5c-0.28-0.48-0.11-1.09,0.37-1.37l4.33-2.5
		c0.48-0.28,1.09-0.11,1.37,0.37s0.11,1.09-0.37,1.37l-4.33,2.5C48.8,23.46,48.63,23.5,48.46,23.5z"/>
	<path class="st0" d="M11.22,45c-0.35,0-0.68-0.18-0.87-0.5c-0.28-0.48-0.11-1.09,0.37-1.37l4.33-2.5c0.48-0.28,1.09-0.11,1.37,0.37
		c0.28,0.48,0.11,1.09-0.37,1.37l-4.33,2.5C11.56,44.96,11.39,45,11.22,45z"/>
	<path class="st0" d="M22.5,16.55c-0.35,0-0.68-0.18-0.87-0.5l-2.5-4.33c-0.28-0.48-0.11-1.09,0.37-1.37
		c0.48-0.28,1.09-0.11,1.37,0.37l2.5,4.33c0.28,0.48,0.11,1.09-0.37,1.37C22.84,16.5,22.67,16.55,22.5,16.55z"/>
	<path class="st0" d="M44,53.78c-0.35,0-0.68-0.18-0.87-0.5l-2.5-4.33c-0.28-0.48-0.11-1.09,0.37-1.37
		c0.48-0.28,1.09-0.11,1.37,0.37l2.5,4.33c0.28,0.48,0.11,1.09-0.37,1.37C44.34,53.74,44.17,53.78,44,53.78z"/>
	<path class="st0" d="M41.5,16.55c-0.17,0-0.34-0.04-0.5-0.13c-0.48-0.28-0.64-0.89-0.37-1.37l2.5-4.33
		c0.28-0.48,0.89-0.64,1.37-0.37c0.48,0.28,0.64,0.89,0.37,1.37l-2.5,4.33C42.18,16.37,41.84,16.55,41.5,16.55z"/>
	<path class="st0" d="M20,53.78c-0.17,0-0.34-0.04-0.5-0.13c-0.48-0.28-0.64-0.89-0.37-1.37l2.5-4.33c0.28-0.48,0.89-0.64,1.37-0.37
		c0.48,0.28,0.64,0.89,0.37,1.37l-2.5,4.33C20.68,53.6,20.34,53.78,20,53.78z"/>
	<path class="st0" d="M15.54,23.5c-0.17,0-0.34-0.04-0.5-0.13l-4.33-2.5c-0.48-0.28-0.64-0.89-0.37-1.37
		c0.28-0.48,0.89-0.64,1.37-0.37l4.33,2.5c0.48,0.28,0.64,0.89,0.37,1.37C16.23,23.32,15.89,23.5,15.54,23.5z"/>
	<path class="st0" d="M52.78,45c-0.17,0-0.34-0.04-0.5-0.13l-4.33-2.5c-0.48-0.28-0.64-0.89-0.37-1.37
		c0.28-0.48,0.89-0.64,1.37-0.37l4.33,2.5c0.48,0.28,0.64,0.89,0.37,1.37C53.46,44.82,53.13,45,52.78,45z"/>
</g>
</svg>
