<?xml version="1.0" encoding="utf-8"?>
<!-- Generator: Adobe Illustrator 24.0.0, SVG Export Plug-In . SVG Version: 6.00 Build 0)  -->
<svg version="1.1" id="Layer_1" xmlns="http://www.w3.org/2000/svg" xmlns:xlink="http://www.w3.org/1999/xlink" x="0px" y="0px"
	 viewBox="0 0 64 64" style="enable-background:new 0 0 64 64;" xml:space="preserve">
<style type="text/css">
	.st0{fill:#FFFFFF;}
</style>
<g>
	<path class="st0" d="M41,18H12c-0.55,0-1-0.45-1-1s0.45-1,1-1h29c0.55,0,1,0.45,1,1S41.55,18,41,18z"/>
	<path class="st0" d="M56,18H45c-0.55,0-1-0.45-1-1s0.45-1,1-1h11c0.55,0,1,0.45,1,1S56.55,18,56,18z"/>
	<path class="st0" d="M28,24H10c-0.55,0-1-0.45-1-1s0.45-1,1-1h18c0.55,0,1,0.45,1,1S28.55,24,28,24z"/>
	<path class="st0" d="M54,24H32c-0.55,0-1-0.45-1-1s0.45-1,1-1h22c0.55,0,1,0.45,1,1S54.55,24,54,24z"/>
	<path class="st0" d="M52,30H8c-0.55,0-1-0.45-1-1s0.45-1,1-1h44c0.55,0,1,0.45,1,1S52.55,30,52,30z"/>
	<path class="st0" d="M56,42H12c-0.55,0-1-0.45-1-1s0.45-1,1-1h44c0.55,0,1,0.45,1,1S56.55,42,56,42z"/>
	<path class="st0" d="M22,36H10c-0.55,0-1-0.45-1-1s0.45-1,1-1h12c0.55,0,1,0.45,1,1S22.55,36,22,36z"/>
	<path class="st0" d="M54,36H26c-0.55,0-1-0.45-1-1s0.45-1,1-1h28c0.55,0,1,0.45,1,1S54.55,36,54,36z"/>
	<path class="st0" d="M35,48H10c-0.55,0-1-0.45-1-1s0.45-1,1-1h25c0.55,0,1,0.45,1,1S35.55,48,35,48z"/>
	<path class="st0" d="M54,48H39c-0.55,0-1-0.45-1-1s0.45-1,1-1h15c0.55,0,1,0.45,1,1S54.55,48,54,48z"/>
</g>
</svg>
