<?xml version="1.0" encoding="utf-8"?>
<!-- Generator: Adobe Illustrator 24.0.0, SVG Export Plug-In . SVG Version: 6.00 Build 0)  -->
<svg version="1.1" id="Layer_1" xmlns="http://www.w3.org/2000/svg" xmlns:xlink="http://www.w3.org/1999/xlink" x="0px" y="0px"
	 viewBox="0 0 64 64" style="enable-background:new 0 0 64 64;" xml:space="preserve">
<style type="text/css">
	.st0{fill:#FFFFFF;}
</style>
<g>
	<path class="st0" d="M24,14h-4c-0.55,0-1-0.45-1-1s0.45-1,1-1h4c0.55,0,1,0.45,1,1S24.55,14,24,14z"/>
	<path class="st0" d="M24,20h-4c-0.55,0-1-0.45-1-1s0.45-1,1-1h4c0.55,0,1,0.45,1,1S24.55,20,24,20z"/>
	<path class="st0" d="M24,26h-4c-0.55,0-1-0.45-1-1s0.45-1,1-1h4c0.55,0,1,0.45,1,1S24.55,26,24,26z"/>
	<path class="st0" d="M24,32h-4c-0.55,0-1-0.45-1-1s0.45-1,1-1h4c0.55,0,1,0.45,1,1S24.55,32,24,32z"/>
	<path class="st0" d="M24,38h-4c-0.55,0-1-0.45-1-1s0.45-1,1-1h4c0.55,0,1,0.45,1,1S24.55,38,24,38z"/>
	<path class="st0" d="M44,14h-4c-0.55,0-1-0.45-1-1s0.45-1,1-1h4c0.55,0,1,0.45,1,1S44.55,14,44,14z"/>
	<path class="st0" d="M44,20h-4c-0.55,0-1-0.45-1-1s0.45-1,1-1h4c0.55,0,1,0.45,1,1S44.55,20,44,20z"/>
	<path class="st0" d="M44,26h-4c-0.55,0-1-0.45-1-1s0.45-1,1-1h4c0.55,0,1,0.45,1,1S44.55,26,44,26z"/>
	<path class="st0" d="M44,32h-4c-0.55,0-1-0.45-1-1s0.45-1,1-1h4c0.55,0,1,0.45,1,1S44.55,32,44,32z"/>
	<path class="st0" d="M44,38h-4c-0.55,0-1-0.45-1-1s0.45-1,1-1h4c0.55,0,1,0.45,1,1S44.55,38,44,38z"/>
	<path class="st0" d="M32,57c-4.96,0-9-4.04-9-9c0-2.98,1.52-5.79,4-7.45V12c0-2.76,2.24-5,5-5s5,2.24,5,5v28.55
		c2.48,1.67,4,4.47,4,7.45C41,52.96,36.96,57,32,57z M32,9c-1.65,0-3,1.35-3,3v29.1c0,0.36-0.19,0.69-0.5,0.86
		C26.31,43.24,25,45.5,25,48c0,3.86,3.14,7,7,7s7-3.14,7-7c0-2.5-1.31-4.76-3.5-6.03c-0.31-0.18-0.5-0.51-0.5-0.86V12
		C35,10.35,33.65,9,32,9z"/>
	<path class="st0" d="M32,51c-1.65,0-3-1.35-3-3s1.35-3,3-3s3,1.35,3,3S33.65,51,32,51z M32,47c-0.55,0-1,0.45-1,1s0.45,1,1,1
		s1-0.45,1-1S32.55,47,32,47z"/>
	<path class="st0" d="M32,47c-0.55,0-1-0.45-1-1V30c0-0.55,0.45-1,1-1s1,0.45,1,1v16C33,46.55,32.55,47,32,47z"/>
</g>
</svg>
